<?xml version="1.0" encoding="UTF-8"?>
<svg width="1410px" height="480px" viewBox="0 0 1410 480" version="1.1" xmlns="http://www.w3.org/2000/svg" xmlns:xlink="http://www.w3.org/1999/xlink">
    <!-- Generator: Sketch 46.2 (44496) - http://www.bohemiancoding.com/sketch -->
    <title>mark + type</title>
    <desc>Created with Sketch.</desc>
    <defs></defs>
    <g id="Page-1" stroke="none" stroke-width="1" fill="none" fill-rule="evenodd">
        <g id="mark-+-type">
            <g id="Group" transform="translate(32.000000, 35.000000)">
                <g id="Mark-/-coloured">
                    <g id="Mark" transform="translate(20.000000, 17.000000)">
                        <path d="M186.5,364 C282.873689,364 361,285.873689 361,189.5 C361,93.1263112 282.873689,15 186.5,15 C90.1263112,15 12,93.1263112 12,189.5 C12,285.873689 90.1263112,364 186.5,364 Z" id="Sky" fill="#B8DBFE"></path>
                        <path d="M6.59438754,140.167234 C2.29535698,155.880924 0,172.422408 0,189.5 C0,292.501106 83.4988942,376 186.5,376 C289.501106,376 373,292.501106 373,189.5 C373,178.809938 372.100591,168.329944 370.373316,158.131563 C349.149744,152.965637 327.21217,149.833631 303.950865,148.403226 C272.829335,146.489473 247.920342,147.276577 193.25036,150.756826 C150.825397,153.457566 132.442166,154.291794 109.052624,154.048798 C71.2792212,153.656365 38.1675117,149.487844 6.59438019,140.167232 L6.59438754,140.167234 Z" id="cliff" fill="#FFFFFF"></path>
                        <path d="M193.25036,150.756826 C150.825397,153.457566 132.442166,154.291794 109.052624,154.048798 C71.2792212,153.656365 38.1675117,149.487844 6.59438019,140.167232 C2.29535698,155.880924 0.213835146,179.125064 0.633211611,174.020805 C71.9377748,171.863999 150.924951,156.057299 227.289759,148.751569 C217.272543,149.271579 206.08109,149.940031 193.25036,150.756826 Z" id="grass" fill="#417505"></path>
                        <path d="M42.4792599,308 C76.6850868,349.524618 128.500715,376 186.5,376 C244.499285,376 296.314913,349.524618 330.52074,308 L42.4792599,308 Z" id="water" fill="#4A90E2"></path>
                        <path d="M355.956127,258.157126 C346.908549,280.995895 333.480762,301.622281 316.70905,319 L106,319 L106,287 C106,282.581722 109.581722,279 114,279 L182,279 L182,259 C182,254.581722 185.581722,251 190,251 L348,251 C352.133602,251 355.534977,254.135041 355.956127,258.157126 Z" id="Pier" fill="#D8D8D8"></path>
                        <path d="M127,276 L179,276 L179,259 C179,252.924868 183.924868,248 190,248 L356,248 L356,254 L190,254 C187.238576,254 185,256.238576 185,259 L185,276 L346,276 L346,282 L114,282 C111.238576,282 109,284.238576 109,287 L109,316 L316,316 L316,322 L106,322 C104.343146,322 103,320.656854 103,319 L103,308 L53,308 L53,302 L103,302 L103,287 C103,280.924868 107.924868,276 114,276 L124,276 L124,265.491037 C124,264.66261 124.671573,263.991037 125.5,263.991037 C126.328427,263.991037 127,264.66261 127,265.491037 L127,276 Z M38.5,177.782922 L38.5,207 C38.5,207.828427 37.8284271,208.5 37,208.5 C36.1715729,208.5 35.5,207.828427 35.5,207 L35.5,178.031065 C23.1261586,179.032879 11.5126862,179.701496 0.410296035,180.029863 C0.543308085,178.015056 0.70831641,176.008993 0.904817598,174.012177 C19.4066739,173.442864 39.3816413,171.921708 61.9961,169.479743 C82.7150479,167.24246 98.3288928,165.202492 138.38383,159.694958 C152.238291,157.789976 159.813594,156.759234 168.257498,155.641392 C181.41643,153.899354 193.484439,152.39252 204.755,151.105715 L204.755001,151.105715 C201.441724,151.308799 198.006946,151.523757 194.440952,151.750765 C149.925612,154.584578 132.565888,155.282853 110.021459,155.048636 C74.0619507,154.675048 43.1158201,150.897872 14.1441955,143.128212 C14.9197576,141.257401 15.7248921,139.401949 16.5590158,137.56244 C44.7671196,145.038448 74.9606014,148.68406 110.08379,149.048959 C132.445723,149.28128 149.680705,148.588023 194.059768,145.762886 C251.439762,142.11012 275.102456,141.562094 305.134996,143.408882 C317.627971,144.177112 329.638208,145.426711 341.278672,147.182334 C350.601742,148.124779 359.617658,149.390398 368.364993,150.995617 C368.843303,153.100291 369.286016,155.218494 369.692464,157.34956 C367.299867,156.890398 364.886186,156.457459 362.450581,156.050397 L362.222088,157.107667 C355.127253,155.574363 347.908746,154.253349 340.536442,153.138291 C331.503428,152.228663 322.16994,151.626238 312.5,151.316144 L312.5,195.466216 C312.5,196.037159 311.828427,196.5 311,196.5 C310.171573,196.5 309.5,196.037159 309.5,195.466216 L309.5,151.229581 C298.838045,150.9559 287.768459,151.030701 276.244043,151.434475 C245.469887,152.512693 213.539512,155.699107 169.044935,161.589496 C160.61385,162.705641 153.046115,163.735353 139.201137,165.639031 C134.860081,166.235924 130.805546,166.792166 127,167.31241 L127,234.491037 C127,235.319464 126.328427,235.991037 125.5,235.991037 C124.671573,235.991037 124,235.319464 124,234.491037 L124,167.722102 C94.6969282,171.719411 80.5855558,173.507287 62.6402501,175.445065 C54.2557484,176.350444 46.2286498,177.130286 38.5,177.782922 Z M115.5,336 C114.395431,336 113.5,335.104569 113.5,334 C113.5,332.895431 114.395431,332 115.5,332 L186.5,332 C187.604569,332 188.5,332.895431 188.5,334 C188.5,335.104569 187.604569,336 186.5,336 L115.5,336 Z M202.5,336 C201.395431,336 200.5,335.104569 200.5,334 C200.5,332.895431 201.395431,332 202.5,332 L206.5,332 C207.604569,332 208.5,332.895431 208.5,334 C208.5,335.104569 207.604569,336 206.5,336 L202.5,336 Z M246.5,336 C245.395431,336 244.5,335.104569 244.5,334 C244.5,332.895431 245.395431,332 246.5,332 L297.5,332 C298.604569,332 299.5,332.895431 299.5,334 C299.5,335.104569 298.604569,336 297.5,336 L246.5,336 Z M133.991037,362 C132.334183,362 130.991037,360.656854 130.991037,359 C130.991037,357.343146 132.334183,356 133.991037,356 L204.991037,356 C206.647892,356 207.991037,357.343146 207.991037,359 C207.991037,360.656854 206.647892,362 204.991037,362 L133.991037,362 Z M225.991037,362 C224.334183,362 222.991037,360.656854 222.991037,359 C222.991037,357.343146 224.334183,356 225.991037,356 L229.991037,356 C231.647892,356 232.991037,357.343146 232.991037,359 C232.991037,360.656854 231.647892,362 229.991037,362 L225.991037,362 Z M64.5,318 C63.9477153,318 63.5,317.552285 63.5,317 C63.5,316.447715 63.9477153,316 64.5,316 L77.5,316 C78.0522847,316 78.5,316.447715 78.5,317 C78.5,317.552285 78.0522847,318 77.5,318 L64.5,318 Z M96,318 C95.7238576,318 95.5,317.552285 95.5,317 C95.5,316.447715 95.7238576,316 96,316 L102,316 C102.276142,316 102.5,316.447715 102.5,317 C102.5,317.552285 102.276142,318 102,318 L96,318 Z M309.5,211 C309.5,210.171573 310.171573,209.5 311,209.5 C311.828427,209.5 312.5,210.171573 312.5,211 L312.5,215 C312.5,215.828427 311.828427,216.5 311,216.5 C310.171573,216.5 309.5,215.828427 309.5,215 L309.5,211 Z M124,251.491037 C124,250.66261 124.671573,249.991037 125.5,249.991037 C126.328427,249.991037 127,250.66261 127,251.491037 L127,255.491037 C127,256.319464 126.328427,256.991037 125.5,256.991037 C124.671573,256.991037 124,256.319464 124,255.491037 L124,251.491037 Z M35.5,253 C35.5,252.171573 36.1715729,251.5 37,251.5 C37.8284271,251.5 38.5,252.171573 38.5,253 L38.5,255 C38.5,255.828427 37.8284271,256.5 37,256.5 C36.1715729,256.5 35.5,255.828427 35.5,255 L35.5,253 Z M35.5,265 C35.5,264.171573 36.1715729,263.5 37,263.5 C37.8284271,263.5 38.5,264.171573 38.5,265 L38.5,298 C38.5,298.828427 37.8284271,299.5 37,299.5 C36.1715729,299.5 35.5,298.828427 35.5,298 L35.5,265 Z M186.5,364 C282.873689,364 361,285.873689 361,189.5 C361,93.1263112 282.873689,15 186.5,15 C90.1263112,15 12,93.1263112 12,189.5 C12,285.873689 90.1263112,364 186.5,364 Z M186.5,376 C83.4988942,376 0,292.501106 0,189.5 C0,86.4988942 83.4988942,3 186.5,3 C289.501106,3 373,86.4988942 373,189.5 C373,292.501106 289.501106,376 186.5,376 Z M151.979244,84.7668394 L220.020756,84.7668394 L235.270847,267.751295 L136.729153,267.751295 L151.979244,84.7668394 Z M141.825,73.8186528 C140.168146,73.8186528 138.825,72.4755071 138.825,70.8186528 C138.825,69.1617986 140.168146,67.8186528 141.825,67.8186528 L230.175,67.8186528 C231.831854,67.8186528 233.175,69.1617986 233.175,70.8186528 C233.175,72.4755071 231.831854,73.8186528 230.175,73.8186528 L141.825,73.8186528 Z M200,39.6217617 L172,39.6217617 L172,69 L166,69 L166,39.6217617 L157.5,39.6217617 C155.843146,39.6217617 154.5,38.2786159 154.5,36.6217617 C154.5,34.9649074 155.843146,33.6217617 157.5,33.6217617 L166,33.6217617 L166,27.373057 C166,22.3523577 168.784398,17.9901186 172.875,15.7830105 L172.875,7.6763182 C172.875,3.43680472 176.311805,-6.21724894e-15 180.551318,0 L191.448682,8.8817842e-16 C195.688195,1.77635684e-15 199.125,3.43680472 199.125,7.6763182 L199.125,15.7830105 C203.215602,17.9901186 206,22.3523577 206,27.373057 L206,33.6217617 L214.5,33.6217617 C216.156854,33.6217617 217.5,34.9649074 217.5,36.6217617 C217.5,38.2786159 216.156854,39.6217617 214.5,39.6217617 L206,39.6217617 L206,69 L200,69 L200,39.6217617 Z M235,252.901554 C242.731986,252.901554 249,259.169568 249,266.901554 L249,282 L123,282 L123,266.901554 C123,259.169568 129.268014,252.901554 137,252.901554 L235,252.901554 Z M218.625,69.0932642 C223.595563,69.0932642 227.625,73.1227015 227.625,78.0932642 L227.625,89.642487 L144.375,89.642487 L144.375,78.0932642 C144.375,73.1227015 148.404437,69.0932642 153.375,69.0932642 L218.625,69.0932642 Z" id="Outlines" fill="#000000" fill-rule="nonzero"></path>
                        <path d="M201.975,253 L201.975,241.528497 C201.975,236.00565 197.497847,231.528497 191.975,231.528497 L180.025,231.528497 C174.502153,231.528497 170.025,236.00565 170.025,241.528497 L170.025,253 L143.895965,253 L157.5,90.7668394 L214.5,90.7668394 L228.100006,253 L201.975,253 Z M201.975,276 L243,276 L243,266.901554 C243,262.483276 239.418278,258.901554 235,258.901554 L201.975,258.901554 L201.975,276 Z M170.025,276 L129,276 L129,266.901554 C129,262.483276 132.581722,258.901554 137,258.901554 L170.025,258.901554 L170.025,276 Z M184.026923,133.512953 C180.394589,133.512953 177.45,136.457274 177.45,140.089279 L177.45,159.160622 L194.55,159.160622 L194.55,140.089279 C194.55,136.457274 191.605411,133.512953 187.973077,133.512953 L184.026923,133.512953 Z M193.000636,20.25 C196.866278,20.25 200,23.4396812 200,27.3743523 L200,33.0738342 L172,33.0738342 L172,27.3743523 C172,23.4396812 175.133722,20.25 178.999364,20.25 L193.000636,20.25 Z M191.448682,6 C192.374487,6 193.125,6.75051322 193.125,7.6763182 L193.125,11.6994819 L178.875,11.6994819 L178.875,7.6763182 C178.875,6.75051322 179.625513,6 180.551318,6 L191.448682,6 Z M218.625,75.0932642 C220.281854,75.0932642 221.625,76.43641 221.625,78.0932642 L221.625,83.642487 L150.375,83.642487 L150.375,78.0932642 C150.375,76.43641 151.718146,75.0932642 153.375,75.0932642 L218.625,75.0932642 Z" id="tower" fill="#FFFFFF"></path>
                        <path d="M186,90.7668394 L214.5,90.7668394 L228.100006,253 L201.975,253 L201.975,241.528497 C201.975,236.00565 197.497847,231.528497 191.975,231.528497 L186,231.528497 L186,159.160622 L194.55,159.160622 L194.55,140.089279 C194.55,136.457274 191.605411,133.512953 187.973077,133.512953 L186,133.512953 L186,90.7668394 L186,90.7668394 Z M186,33.0738342 L200,33.0738342 L200,27.3743523 C200,23.4396812 196.866278,20.25 193.000636,20.25 L186,20.25 L186,33.0738342 L186,33.0738342 Z M186,11.6994819 L193.125,11.6994819 L193.125,7.6763182 C193.125,6.75051322 192.374487,6 191.448682,6 L186,6 L186,11.6994819 L186,11.6994819 Z M186,83.642487 L221.625,83.642487 L221.625,78.0932642 C221.625,76.43641 220.281854,75.0932642 218.625,75.0932642 L186,75.0932642 L186,83.642487 Z M201.975,276 L243,276 L243,266.901554 C243,262.483276 239.418278,258.901554 235,258.901554 L201.975,258.901554 L201.975,276 L201.975,276 Z" id="towershade" fill="#F2F2F2"></path>
                        <path d="M180.025,237.528497 L191.975,237.528497 C194.184139,237.528497 195.975,239.319358 195.975,241.528497 L195.975,276 L176.025,276 L176.025,241.528497 C176.025,239.319358 177.815861,237.528497 180.025,237.528497 Z M192,261 C193.656854,261 195,259.656854 195,258 C195,256.343146 193.656854,255 192,255 C190.343146,255 189,256.343146 189,258 C189,259.656854 190.343146,261 192,261 Z" id="Door" fill="#145196"></path>
                    </g>
                </g>
                <path d="M448.749966,119.124961 C437.874976,114.749965 431.124983,109.87497 431.124983,100.999978 C431.124983,93.1249856 436.999977,88.3749901 445.499969,88.3749901 C454.124961,88.3749901 462.499953,95.3749834 462.999952,107.624972 L474.249942,107.624972 L474.249942,80.4999976 L465.74995,80.4999976 L464.874951,87.7499907 C461.624954,82.8749954 453.374961,78 442.124972,78 C428.124986,78 414.999998,85.8749925 414.999998,102.124977 C414.999998,120.12496 428.124986,126.499954 441.624973,132.124948 C454.124961,137.249943 461.874953,142.249939 461.874953,151.62493 C461.874953,160.499921 454.99996,165.749916 445.874969,165.749916 C435.124979,165.749916 425.999988,157.999924 424.999989,144.624936 L413.999999,144.624936 L413.999999,174.249908 L422.249991,174.249908 L423.37499,164.499918 C427.499986,172.12491 437.374977,176.749906 449.249965,176.749906 C466.874949,176.749906 478.499938,166.874915 478.499938,150.124931 C478.499938,132.249948 464.124951,125.374955 448.749966,119.124961 Z M522.624972,107.999971 C541.874953,107.999971 554.999941,122.374958 554.999941,142.374939 C554.999941,162.37492 541.874953,176.749906 522.624972,176.749906 C503.49999,176.749906 490.250002,162.37492 490.250002,142.374939 C490.250002,122.374958 503.49999,107.999971 522.624972,107.999971 Z M522.624972,166.499916 C532.624962,166.499916 539.749955,156.999925 539.749955,142.374939 C539.749955,127.749953 532.624962,118.374961 522.624972,118.374961 C512.749981,118.374961 505.499988,127.749953 505.499988,142.374939 C505.499988,156.874925 512.749981,166.499916 522.624972,166.499916 Z M624.249946,164.124918 L624.249946,110.499969 L602.624966,110.499969 L602.624966,120.624959 L609.874959,120.624959 L609.874959,151.74993 C609.874959,160.124922 603.749965,166.499916 595.249973,166.499916 C587.499981,166.499916 583.374985,160.874921 583.374985,152.124929 L583.374985,110.499969 L561.375006,110.499969 L561.375006,120.624959 L568.999998,120.624959 L568.999998,155.999926 C568.999998,167.249915 575.999992,176.749906 589.249979,176.749906 C597.124972,176.749906 604.999964,173.499909 609.874959,167.374915 L609.874959,174.249908 L632.124938,174.249908 L632.124938,164.124918 L624.249946,164.124918 Z M675.74997,174.249908 L675.74997,164.124918 C674.374971,164.374918 671.624974,164.499918 669.749975,164.499918 C663.249982,164.499918 660.374984,162.24992 660.374984,157.499924 L660.374984,120.624959 L675.37497,120.624959 L675.37497,110.499969 L660.374984,110.499969 L660.374984,90.7499878 L651.624993,90.7499878 L651.624993,97.2499816 C650.874993,106.124973 649.249995,110.499969 641.625002,110.499969 L638.000006,110.499969 L638.000006,120.624959 L645.999998,120.624959 L645.999998,159.874922 C645.999998,169.249913 649.374995,175.999907 663.374982,175.999907 C668.124977,175.999907 673.499972,175.124907 675.74997,174.249908 Z M749.124942,164.124918 L749.124942,128.749952 C749.124942,112.999967 737.249954,107.999971 728.874962,107.999971 C720.24997,107.999971 712.749977,111.499968 708.249981,118.374961 L708.249981,80.4999976 L686.000003,80.4999976 L686.000003,90.624988 L693.874995,90.624988 L693.874995,164.124918 L686.000003,164.124918 L686.000003,174.249908 L714.749975,174.249908 L714.749975,164.124918 L708.249981,164.124918 L708.249981,132.999948 C708.249981,124.374956 714.624975,118.249962 722.874967,118.249962 C729.624961,118.249962 734.749956,122.624957 734.749956,132.749948 L734.749956,164.124918 L728.249962,164.124918 L728.249962,174.249908 L756.749935,174.249908 L756.749935,164.124918 L749.124942,164.124918 Z M860.374936,109.87497 L860.374936,80.4999976 L793.5,80.4999976 L793.5,91.1249875 L803.374991,91.1249875 L803.374991,163.624918 L793.5,163.624918 L793.5,174.249908 L860.374936,174.249908 L860.374936,142.499938 L851.374945,142.499938 L851.374945,150.99993 C851.374945,160.499921 849.624946,163.624918 842.874953,163.624918 L818.499976,163.624918 L818.499976,130.999949 L841.124955,130.999949 L841.124955,120.624959 L818.499976,120.624959 L818.499976,91.1249875 L842.874953,91.1249875 C849.624946,91.1249875 851.374945,93.749985 851.374945,103.499976 L851.374945,109.87497 L860.374936,109.87497 Z M931.124947,164.124918 L938.99994,164.124918 L938.99994,174.499908 L916.999961,174.499908 L916.999961,166.249916 C913.374964,170.999911 905.999971,176.749906 894.624982,176.749906 C882.249994,176.749906 873.625002,170.874911 873.625002,157.624924 C873.625002,143.874937 884.374992,137.374943 903.124974,137.374943 L916.749961,137.374943 L916.749961,131.749949 C916.749961,122.999957 912.374965,118.499961 903.874973,118.499961 C895.499981,118.499961 890.499986,123.374957 890.499986,129.749951 L890.499986,130.87495 L876.499999,130.87495 L876.499999,129.624951 C876.499999,116.624963 886.12499,108.124971 904.624973,108.124971 C923.874954,108.124971 931.124947,116.999963 931.124947,132.374948 L931.124947,164.124918 Z M901.249976,166.624915 C910.874967,166.624915 915.249962,160.374921 916.749961,156.124925 L916.749961,144.374937 L905.999971,144.374937 C893.749983,144.374937 888.499988,148.749933 888.499988,155.999926 C888.499988,162.624919 893.374983,166.624915 901.249976,166.624915 Z M980.374972,136.249944 C970.374982,132.874948 963.499988,130.24995 963.499988,124.124956 C963.499988,118.749961 967.624984,115.499964 973.624979,115.499964 C980.749972,115.499964 986.249967,121.124959 987.374965,128.499952 L996.999956,128.499952 L996.999956,110.624969 L988.874964,110.624969 L988.249965,115.749964 C984.624968,111.124968 977.874974,108.249971 969.874982,108.249971 C959.499992,108.249971 949.625001,113.624966 949.625001,125.749954 C949.625001,138.999942 960.624991,143.249938 971.124981,146.874934 C979.624973,149.249932 985.499967,152.124929 985.499967,158.874923 C985.499967,164.874917 981.249971,168.124914 974.249978,168.124914 C965.999986,168.124914 959.874992,162.37492 958.999992,154.499927 L949.250002,154.499927 L949.250002,174.249908 L957.499994,174.249908 L958.124993,167.874914 C961.99999,173.249909 968.999983,176.249906 979.124973,176.249906 C991.624961,176.249906 1000.62495,169.749913 1000.62495,156.874925 C1000.62495,144.249937 990.749962,139.374941 980.374972,136.249944 Z M1044.49997,174.249908 L1044.49997,164.124918 C1043.12497,164.374918 1040.37497,164.499918 1038.49998,164.499918 C1031.99998,164.499918 1029.12498,162.24992 1029.12498,157.499924 L1029.12498,120.624959 L1044.12497,120.624959 L1044.12497,110.499969 L1029.12498,110.499969 L1029.12498,90.7499878 L1020.37499,90.7499878 L1020.37499,97.2499816 C1019.62499,106.124973 1017.99999,110.499969 1010.375,110.499969 L1006.75001,110.499969 L1006.75001,120.624959 L1014.75,120.624959 L1014.75,159.874922 C1014.75,169.249913 1018.12499,175.999907 1032.12498,175.999907 C1036.87498,175.999907 1042.24997,175.124907 1044.49997,174.249908 Z M450.874964,309.249908 L413,309.249908 L413,298.624918 L422.99999,298.624918 L422.99999,226.124987 L413,226.124987 L413,215.499998 L452.249963,215.499998 C471.749944,215.499998 485.499931,223.99999 485.499931,243.874971 C485.499931,264.499951 470.999945,273.749942 451.499963,273.749942 L438.124976,273.749942 L438.124976,298.624918 L450.874964,298.624918 L450.874964,309.249908 Z M438.124976,263.499952 L449.499965,263.499952 C460.624955,263.499952 468.374947,257.499958 468.374947,244.74997 C468.374947,231.624982 460.624955,226.124987 449.499965,226.124987 L438.124976,226.124987 L438.124976,263.499952 Z M526.874972,271.249944 C516.874982,267.874948 509.999988,265.24995 509.999988,259.124956 C509.999988,253.749961 514.124984,250.499964 520.124979,250.499964 C527.249972,250.499964 532.749967,256.124959 533.874965,263.499952 L543.499956,263.499952 L543.499956,245.624969 L535.374964,245.624969 L534.749965,250.749964 C531.124968,246.124968 524.374974,243.249971 516.374982,243.249971 C505.999992,243.249971 496.125001,248.624966 496.125001,260.749954 C496.125001,273.999942 507.124991,278.249938 517.624981,281.874934 C526.124973,284.249932 531.999967,287.124929 531.999967,293.874923 C531.999967,299.874917 527.749971,303.124914 520.749978,303.124914 C512.499986,303.124914 506.374992,297.37492 505.499992,289.499927 L495.750002,289.499927 L495.750002,309.249908 L503.999994,309.249908 L504.624993,302.874914 C508.49999,308.249909 515.499983,311.249906 525.624973,311.249906 C538.124961,311.249906 547.124953,304.749913 547.124953,291.874925 C547.124953,279.249937 537.249962,274.374941 526.874972,271.249944 Z M623.374939,245.499969 L597.249964,245.499969 L597.249964,255.624959 L604.999956,255.624959 L589.874971,296.49992 L575.249985,255.624959 L582.374978,255.624959 L582.374978,245.499969 L553.250006,245.499969 L553.250006,255.624959 L560.749999,255.624959 L583.374977,311.999906 L581.499979,317.249901 C579.87498,321.999896 576.374984,324.124894 571.374988,324.124894 C570.12499,324.124894 567.874992,323.999894 564.874995,323.749894 L564.249995,334.374884 C565.624994,334.624884 568.374991,335.124884 571.749988,335.124884 C582.624978,335.124884 588.499972,327.87489 592.624968,317.124901 L616.124946,255.624959 L623.374939,255.624959 L623.374939,245.499969 Z M677.499957,269.499946 L692.499942,269.499946 C690.874944,253.749961 679.374955,242.999971 661.874972,242.999971 C642.12499,242.999971 629.625002,257.749957 629.625002,277.374939 C629.625002,297.12492 642.12499,311.749906 661.874972,311.749906 C679.374955,311.749906 690.999944,300.874916 692.499942,284.999931 L677.499957,284.999931 C675.874958,295.124922 669.749964,301.499916 661.874972,301.499916 C652.124981,301.499916 644.874988,291.374925 644.874988,277.374939 C644.874988,263.374952 652.124981,253.374961 661.874972,253.374961 C669.624964,253.374961 675.749958,259.499956 677.499957,269.499946 Z M764.624942,299.124918 L764.624942,263.749952 C764.624942,247.999967 752.749954,242.999971 744.374962,242.999971 C735.74997,242.999971 728.249977,246.499968 723.749981,253.374961 L723.749981,215.499998 L701.500003,215.499998 L701.500003,225.624988 L709.374995,225.624988 L709.374995,299.124918 L701.500003,299.124918 L701.500003,309.249908 L730.249975,309.249908 L730.249975,299.124918 L723.749981,299.124918 L723.749981,267.999948 C723.749981,259.374956 730.124975,253.249962 738.374967,253.249962 C745.124961,253.249962 750.249956,257.624957 750.249956,267.749948 L750.249956,299.124918 L743.749962,299.124918 L743.749962,309.249908 L772.249935,309.249908 L772.249935,299.124918 L764.624942,299.124918 Z M814.124972,242.999971 C833.374953,242.999971 846.499941,257.374958 846.499941,277.374939 C846.499941,297.37492 833.374953,311.749906 814.124972,311.749906 C794.99999,311.749906 781.750002,297.37492 781.750002,277.374939 C781.750002,257.374958 794.99999,242.999971 814.124972,242.999971 Z M814.124972,301.499916 C824.124962,301.499916 831.249955,291.999925 831.249955,277.374939 C831.249955,262.749953 824.124962,253.374961 814.124972,253.374961 C804.249981,253.374961 796.999988,262.749953 796.999988,277.374939 C796.999988,291.874925 804.249981,301.499916 814.124972,301.499916 Z M890.62497,309.249908 L890.62497,299.124918 C889.249971,299.374918 886.499974,299.499918 884.624975,299.499918 C878.124982,299.499918 875.249984,297.24992 875.249984,292.499924 L875.249984,255.624959 L890.24997,255.624959 L890.24997,245.499969 L875.249984,245.499969 L875.249984,225.749988 L866.499993,225.749988 L866.499993,232.249982 C865.749993,241.124973 864.124995,245.499969 856.500002,245.499969 L852.875006,245.499969 L852.875006,255.624959 L860.874998,255.624959 L860.874998,294.874922 C860.874998,304.249913 864.249995,310.999907 878.249982,310.999907 C882.999977,310.999907 888.374972,310.124907 890.62497,309.249908 Z M963.999942,299.124918 L963.999942,263.749952 C963.999942,247.999967 952.124954,242.999971 943.749962,242.999971 C935.12497,242.999971 927.624977,246.499968 923.124981,253.374961 L923.124981,215.499998 L900.875003,215.499998 L900.875003,225.624988 L908.749995,225.624988 L908.749995,299.124918 L900.875003,299.124918 L900.875003,309.249908 L929.624975,309.249908 L929.624975,299.124918 L923.124981,299.124918 L923.124981,267.999948 C923.124981,259.374956 929.499975,253.249962 937.749967,253.249962 C944.499961,253.249962 949.624956,257.624957 949.624956,267.749948 L949.624956,299.124918 L943.124962,299.124918 L943.124962,309.249908 L971.624935,309.249908 L971.624935,299.124918 L963.999942,299.124918 Z M1045.49994,276.499939 L1045.49994,280.624936 L996.499988,280.624936 C997.624987,293.624923 1004.49998,301.499916 1013.74997,301.499916 C1021.49996,301.499916 1027.99996,296.249921 1029.99996,287.874929 L1045.12494,287.874929 C1041.87494,302.499915 1030.24996,311.749906 1013.99997,311.749906 C994.24999,311.749906 981.125002,297.12492 981.125002,277.374939 C981.125002,257.749957 994.24999,242.999971 1013.99997,242.999971 C1033.87495,242.999971 1045.49994,256.749958 1045.49994,276.499939 Z M1013.62497,252.374962 C1004.49998,252.374962 997.874986,259.874955 996.624988,272.374943 L1030.62496,272.374943 C1029.49996,259.999955 1022.49996,252.374962 1013.62497,252.374962 Z M1093.99997,242.999971 C1087.12497,242.999971 1080.62498,246.999968 1076.99998,253.249962 L1076.99998,245.499969 L1054.75,245.499969 L1054.75,255.749959 L1062.625,255.749959 L1062.625,299.124918 L1054.75,299.124918 L1054.75,309.249908 L1087.37497,309.249908 L1087.37497,299.124918 L1076.99998,299.124918 L1076.99998,277.124939 C1076.99998,261.999953 1083.37498,254.74996 1093.24997,254.74996 C1095.87496,254.74996 1097.74996,255.37496 1098.49996,255.624959 L1098.49996,243.624971 C1097.87496,243.374971 1096.12496,242.999971 1093.99997,242.999971 Z M1164.49995,299.124918 L1172.37494,299.124918 L1172.37494,309.499908 L1150.37496,309.499908 L1150.37496,301.249916 C1146.74996,305.999911 1139.37497,311.749906 1127.99998,311.749906 C1115.62499,311.749906 1107,305.874911 1107,292.624924 C1107,278.874937 1117.74999,272.374943 1136.49997,272.374943 L1150.12496,272.374943 L1150.12496,266.749949 C1150.12496,257.999957 1145.74997,253.499961 1137.24997,253.499961 C1128.87498,253.499961 1123.87499,258.374957 1123.87499,264.749951 L1123.87499,265.87495 L1109.875,265.87495 L1109.875,264.624951 C1109.875,251.624963 1119.49999,243.124971 1137.99997,243.124971 C1157.24995,243.124971 1164.49995,251.999963 1164.49995,267.374948 L1164.49995,299.124918 Z M1134.62498,301.624915 C1144.24997,301.624915 1148.62496,295.374921 1150.12496,291.124925 L1150.12496,279.374937 L1139.37497,279.374937 C1127.12498,279.374937 1121.87499,283.749933 1121.87499,290.999926 C1121.87499,297.624919 1126.74998,301.624915 1134.62498,301.624915 Z M1220.74997,242.999971 C1235.99995,242.999971 1248.74994,255.749959 1248.74994,276.749939 C1248.74994,297.624919 1235.87495,310.499907 1220.74997,310.499907 C1211.74997,310.499907 1204.62498,306.374911 1200.87498,301.124916 L1200.87498,323.374895 L1209.37498,323.374895 L1209.37498,332.999886 L1178.62501,332.999886 L1178.62501,323.374895 L1186.5,323.374895 L1186.5,255.749959 L1178.62501,255.749959 L1178.62501,245.499969 L1200.87498,245.499969 L1200.87498,252.374962 C1204.62498,247.124967 1211.74997,242.999971 1220.74997,242.999971 Z M1215.99997,299.749917 C1225.87496,299.749917 1233.49995,290.374926 1233.49995,276.749939 C1233.49995,262.999952 1225.99996,253.749961 1215.99997,253.749961 C1207.49998,253.749961 1200.99998,260.624955 1200.99998,268.624947 L1200.87498,268.249947 L1200.87498,285.249931 L1200.99998,284.874931 C1200.99998,292.874924 1207.49998,299.749917 1215.99997,299.749917 Z M1325.24994,245.499969 L1299.12496,245.499969 L1299.12496,255.624959 L1306.87496,255.624959 L1291.74997,296.49992 L1277.12498,255.624959 L1284.24998,255.624959 L1284.24998,245.499969 L1255.12501,245.499969 L1255.12501,255.624959 L1262.625,255.624959 L1285.24998,311.999906 L1283.37498,317.249901 C1281.74998,321.999896 1278.24998,324.124894 1273.24999,324.124894 C1271.99999,324.124894 1269.74999,323.999894 1266.74999,323.749894 L1266.125,334.374884 C1267.49999,334.624884 1270.24999,335.124884 1273.62499,335.124884 C1284.49998,335.124884 1290.37497,327.87489 1294.49997,317.124901 L1317.99995,255.624959 L1325.24994,255.624959 L1325.24994,245.499969 Z" id="South-East-Psychothe" fill="#000000"></path>
            </g>
        </g>
    </g>
</svg>