<?xml version="1.0" encoding="UTF-8"?>
<svg width="130px" height="130px" viewBox="0 0 130 130" version="1.1" xmlns="http://www.w3.org/2000/svg" xmlns:xlink="http://www.w3.org/1999/xlink">
    <!-- Generator: Sketch 46.2 (44496) - http://www.bohemiancoding.com/sketch -->
    <title>Artboard</title>
    <desc>Created with Sketch.</desc>
    <defs></defs>
    <g id="Page-1" stroke="none" stroke-width="1" fill="none" fill-rule="evenodd">
        <g id="Artboard" fill-rule="nonzero" fill="#000000">
            <path d="M65,118 C94.2710917,118 118,94.2710917 118,65 C118,35.7289083 94.2710917,12 65,12 C35.7289083,12 12,35.7289083 12,65 C12,94.2710917 35.7289083,118 65,118 Z M65,130 C29.1014913,130 0,100.898509 0,65 C0,29.1014913 29.1014913,0 65,0 C100.898509,0 130,29.1014913 130,65 C130,100.898509 100.898509,130 65,130 Z" id="Oval"></path>
            <g id="Group" transform="translate(28.000000, 36.000000)">
                <path d="M5.96969697,12 L68.151397,12 C71.4651055,12 74.151397,9.3137085 74.151397,6 C74.151397,2.6862915 71.4651055,0 68.151397,0 L5.96969697,0 C2.65598847,0 -0.0303030303,2.6862915 -0.0303030303,6 C-0.0303030303,9.3137085 2.65598847,12 5.96969697,12 Z" id="Line"></path>
                <path d="M0,35 L75,35 C78.3137085,35 81,32.3137085 81,29 C81,25.6862915 78.3137085,23 75,23 L0,23 C-3.3137085,23 -6,25.6862915 -6,29 C-6,32.3137085 -3.3137085,35 0,35 Z" id="Line"></path>
                <path d="M5.96969697,58 L68.151397,58 C71.4651055,58 74.151397,55.3137085 74.151397,52 C74.151397,48.6862915 71.4651055,46 68.151397,46 L5.96969697,46 C2.65598847,46 -0.0303030303,48.6862915 -0.0303030303,52 C-0.0303030303,55.3137085 2.65598847,58 5.96969697,58 Z" id="Line"></path>
            </g>
        </g>
    </g>
</svg>